<?xml version="1.0" encoding="UTF-8"?>
<svg id="Layer_2" data-name="Layer 2" xmlns="http://www.w3.org/2000/svg" viewBox="0 0 142.15 92.18">
  <defs>
    <style>
      .cls-1 {
        fill: #fff;
      }
    </style>
  </defs>
  <g id="Layer_1-2" data-name="Layer 1">
    <g>
      <g>
        <path class="cls-1" d="m11.55,91.85H0v-17.47h11.55v2.8H3.32v4.18h8.11v2.73H3.32v4.81h8.22v2.95Z"/>
        <path class="cls-1" d="m25.46,91.87h-3.61l-2.62-4.05-2.65,4.05h-3.61l4.51-6.63-4.13-6.06h3.56l2.32,3.54,2.3-3.54h3.59l-4.16,6.06,4.51,6.63Z"/>
        <path class="cls-1" d="m37.96,89.95c-.64.73-1.41,1.28-2.32,1.66-.9.38-1.85.57-2.84.57-.92,0-1.79-.17-2.6-.5-.82-.34-1.52-.8-2.13-1.39-.6-.59-1.07-1.29-1.42-2.11-.35-.82-.52-1.7-.52-2.65s.17-1.8.52-2.61c.35-.81.82-1.51,1.41-2.11.59-.6,1.3-1.07,2.11-1.41.82-.34,1.69-.51,2.62-.51s1.88.17,2.74.52c.87.35,1.62.88,2.26,1.6l-2.12,2.17c-.32-.42-.71-.77-1.17-1.05-.46-.28-1.02-.42-1.67-.42-.48,0-.94.1-1.37.31-.43.2-.81.48-1.14.82-.33.34-.59.75-.78,1.21-.19.47-.28.96-.28,1.49s.09,1.02.28,1.49c.19.47.44.87.77,1.21.32.34.7.62,1.14.82.44.2.9.31,1.38.31.63,0,1.2-.15,1.71-.45.51-.3.92-.68,1.22-1.15l2.19,2.19Z"/>
        <path class="cls-1" d="m52.79,85.51c0,.2-.01.42-.03.63-.02.22-.05.44-.08.68h-10.1c.12.36.28.71.49,1.04.21.33.47.61.78.85.31.24.65.43,1.04.57.39.14.81.21,1.28.21.57,0,1.14-.1,1.71-.3s1.04-.46,1.42-.8l1.99,1.99c-.87.66-1.73,1.12-2.57,1.39-.84.27-1.72.4-2.66.4s-1.83-.18-2.66-.52c-.82-.35-1.54-.82-2.14-1.42-.61-.6-1.08-1.3-1.43-2.11-.35-.81-.52-1.67-.52-2.59s.17-1.78.52-2.59c.35-.81.83-1.51,1.44-2.11.61-.6,1.33-1.07,2.14-1.42.82-.35,1.69-.52,2.62-.52s1.74.16,2.56.49,1.54.78,2.17,1.37c.63.58,1.12,1.28,1.49,2.09.36.81.55,1.7.55,2.68Zm-3.3-1.22c-.25-.8-.69-1.45-1.32-1.94-.63-.49-1.35-.73-2.15-.73s-1.49.24-2.12.73c-.63.49-1.06,1.13-1.31,1.94h6.91Z"/>
        <path class="cls-1" d="m60.32,91.78c-.25.12-.53.21-.84.28-.31.07-.64.11-.97.11-.47,0-.92-.06-1.35-.19-.43-.12-.81-.32-1.13-.6-.32-.28-.58-.64-.77-1.08-.19-.44-.28-.98-.28-1.61v-15h3.21v14.46c0,.52.11.89.32,1.08s.46.3.75.3c.36,0,.71-.11,1.05-.33v2.58Z"/>
        <path class="cls-1" d="m67.4,91.78c-.25.12-.53.21-.84.28-.31.07-.64.11-.97.11-.47,0-.92-.06-1.35-.19-.43-.12-.81-.32-1.13-.6-.32-.28-.58-.64-.77-1.08-.19-.44-.28-.98-.28-1.61v-15h3.21v14.46c0,.52.11.89.32,1.08s.46.3.75.3c.36,0,.71-.11,1.05-.33v2.58Z"/>
        <path class="cls-1" d="m82.21,85.51c0,.2-.01.42-.03.63-.02.22-.05.44-.08.68h-10.1c.12.36.28.71.49,1.04.21.33.47.61.78.85.31.24.65.43,1.04.57.39.14.81.21,1.28.21.57,0,1.14-.1,1.71-.3s1.04-.46,1.42-.8l1.99,1.99c-.87.66-1.73,1.12-2.57,1.39-.84.27-1.72.4-2.66.4s-1.83-.18-2.66-.52c-.82-.35-1.54-.82-2.14-1.42-.61-.6-1.08-1.3-1.43-2.11-.35-.81-.52-1.67-.52-2.59s.17-1.78.52-2.59c.35-.81.83-1.51,1.44-2.11.61-.6,1.33-1.07,2.14-1.42.82-.35,1.69-.52,2.62-.52s1.74.16,2.56.49,1.54.78,2.17,1.37c.63.58,1.12,1.28,1.49,2.09.36.81.55,1.7.55,2.68Zm-3.3-1.22c-.25-.8-.69-1.45-1.32-1.94-.63-.49-1.35-.73-2.15-.73s-1.49.24-2.12.73c-.63.49-1.06,1.13-1.31,1.94h6.91Z"/>
        <path class="cls-1" d="m95.9,91.85h-3.15v-7.54c0-.45-.07-.85-.21-1.19-.14-.34-.33-.63-.56-.85-.23-.23-.5-.39-.8-.5-.3-.11-.61-.16-.93-.16-.48,0-.96.08-1.43.25s-.89.43-1.27.8v9.21h-3.15v-12.64h3.15l.02.94c.19-.19.42-.36.7-.52.28-.16.57-.3.86-.4.3-.11.6-.19.92-.25.31-.06.62-.09.91-.09.64,0,1.26.1,1.85.31.59.2,1.12.52,1.57.94.46.42.83.97,1.1,1.64.28.67.42,1.47.42,2.38v7.7Z"/>
        <path class="cls-1" d="m105.56,91.56c-.32.2-.69.36-1.12.46-.42.1-.85.15-1.27.15-.74,0-1.37-.09-1.88-.27-.51-.18-.92-.46-1.22-.84-.31-.38-.53-.86-.67-1.44-.14-.58-.21-1.27-.21-2.06v-5.53h-1.66v-1.42c1.02-.42,1.85-1.05,2.48-1.88.63-.83,1.07-1.91,1.3-3.24h1.03v3.7h3.19v2.84h-3.19v5.75c0,.32.04.58.12.79.08.2.19.36.32.48.13.12.28.2.45.24.17.04.35.07.54.07.25,0,.55-.04.9-.13.35-.09.65-.23.9-.44v2.78Z"/>
        <path class="cls-1" d="m113.85,86.16h-6.87v-2.93h6.87v2.93Z"/>
        <path class="cls-1" d="m128.02,91.85h-11.55v-17.47h11.55v2.8h-8.22v4.18h8.11v2.73h-8.11v4.81h8.22v2.95Z"/>
        <path class="cls-1" d="m142.15,91.85h-3.21v-.66c-.41.34-.85.58-1.33.73-.48.15-.99.23-1.53.23-.89,0-1.71-.18-2.45-.54-.74-.36-1.38-.84-1.92-1.44-.54-.6-.96-1.31-1.26-2.11-.3-.8-.45-1.65-.45-2.54,0-.95.17-1.83.51-2.64.34-.81.8-1.51,1.37-2.11.57-.6,1.22-1.07,1.95-1.41.73-.34,1.48-.51,2.25-.51.54,0,1.06.07,1.57.22.51.15.95.35,1.31.61v-5.99h3.19v18.15Zm-3.17-3.39v-6.08c-.15-.1-.31-.2-.51-.3-.19-.09-.39-.17-.59-.24-.21-.07-.41-.12-.61-.15-.21-.04-.39-.05-.55-.05-.53,0-1.01.09-1.44.27-.43.18-.81.44-1.13.79-.32.34-.57.75-.75,1.24-.18.48-.26,1.01-.26,1.6s.09,1.09.26,1.56c.18.47.42.88.72,1.22.31.34.68.61,1.11.8.43.19.9.28,1.42.28.83,0,1.61-.31,2.33-.94Z"/>
      </g>
      <g>
        <path class="cls-1" d="m35.48,12.29c.23.59.11,1.13-.32,1.6-.15.17-.17.35-.14.57.05.46.09.93.07,1.4-.02.62-.15,1.23-.14,1.85.03,2.56.15,5.12.44,7.66.21,1.88.51,3.74.93,5.59.15.65.32,1.3.5,1.94,6.53,2.76,21.84,10.61,30.69,26.42.31.56.89.92,1.53.93l5.33.08c.66,0,1.27-.35,1.6-.94,1.67-3.02,3.58-5.74,5.62-8.19-.06-.22-.02-.35.17-.48.18-.12.35-.26.54-.36.69-.8,1.39-1.56,2.1-2.3-.02-1.16-.24-2.3-.51-3.44-.54-2.26-1.16-4.49-1.92-6.69-.32-.92-.67-1.83-1.07-2.71-.36-.77-.35-1.49-.06-2.26.31-.81.63-1.63.88-2.46.38-1.25.55-2.52.36-3.83-.07-.46-.06-.93-.08-1.4.02,0,.04,0,.06,0,.06.27.09.54.18.8.4,1.22.8,2.44,1.23,3.65.56,1.58,1.01,3.18,1.21,4.85.12.96.03,1.9-.25,2.83-.19.63-.06,1.18.36,1.67.32.38.68.73.99,1.12.94,1.17,1.43,2.5,1.44,4.01,0,.4-.02.8-.07,1.19,5.89-5.39,12.07-8.95,16.49-11.09.02-.05.03-.1.05-.15.21-.49.44-.97.68-1.45.92-1.92,1.78-3.87,2.39-5.92.54-1.83.85-3.69.92-5.6.05-1.29.38-2.49,1.07-3.59.2-.32.38-.65.54-.99.27-.56.2-1.1-.16-1.61-.46-.65-1.03-1.19-1.66-1.68-.15-.12-.35-.19-.54-.22-.54-.07-.9.22-1.16.66-.22.37-.3.79-.3,1.21,0,.65.05,1.31.08,1.96.06,1.41-.07,2.8-.38,4.17-.3,1.37-.67,2.73-1.06,4.08-.26.91-.52,1.82-.89,2.68-.89,2.02-2.35,3.63-3.85,5.2-.06.06-.18.1-.27.09-.44-.04-.87-.09-1.31-.15-.17-.02-.35-.08-.56-.13.59-.42.95-.95,1.2-1.55.23-.55.23-1.08-.2-1.55-.31-.34-.41-.76-.46-1.21-.04-.35-.1-.71-.18-1.06-.05-.01-.07-.04-.06-.12,0-.03,0-.05.01-.08,0-.02,0-.04-.01-.06-.23-.68-.59-1.26-1.05-1.77-.04-.65-.07-1.29-.11-1.94-.26.06-.51.13-.77.19-.62.16-1.24.31-1.86.47-.25.06-.51.14-.76.19-.11.02-.24,0-.36-.02-.96-.13-1.92-.26-2.88-.38-.12-.02-.24-.03-.36-.05.04.67.08,1.33.11,1.98.02,0,.05,0,.07,0-.36.56-.59,1.25-.68,1.97-.06.48-.02.97-.02,1.45,0,.35-.06.69-.29.96-.38.44-.49.94-.38,1.49.12.61.35,1.13,1.01,1.36.96.35,1.13,1.24,1.39,2.12-.1-.05-.15-.07-.19-.1-.49-.37-.99-.72-1.46-1.11-.84-.7-1.42-1.58-1.69-2.65-.1-.39-.21-.78-.33-1.17-.52-1.68-1.24-3.28-1.91-4.9-.6-1.44-1.21-2.86-1.65-4.36-.33-1.11-.62-2.23-.68-3.4-.03-.65,0-1.31,0-1.96,0-.56-.14-1.06-.52-1.49-.29-.33-.43-.72-.42-1.18.03-.75.03-1.51.06-2.26.05-1.16.09-2.32.21-3.47.12-1.19.46-2.34,1-3.42.18-.37.21-.75.1-1.14-.35-1.23-1.16-2.05-2.31-2.53-.26-.11-.57-.12-.85-.13-.12,0-.28.07-.37.16-.34.34-.57.74-.74,1.19-.25.71-.16,1.39.16,2.05.45.93.62,1.9.49,2.92-.11.85-.14,1.71-.14,2.57,0,.5-.04,1-.09,1.49-.2,1.96-.54,3.9-.93,5.83-.12.58-.26,1.16-.42,1.74-.07.26-.21.32-.45.2-.27-.13-.51-.31-.76-.46-.59-.36-1.16-.75-1.77-1.06-1.14-.57-2.31-.62-3.48-.04-.64.32-1.23.7-1.77,1.17-.3.25-.62.49-.95.76-.02-.14-.03-.24-.04-.33-.13-1.51-.26-3.02-.4-4.52-.14-1.51-.19-3.02-.15-4.54.02-.53.06-1.07.08-1.6.04-.81.43-1.45.89-2.08.58-.79.77-1.7.67-2.67-.08-.73-.56-1.16-1.28-1.02-.78.15-1.53.4-2.29.63-.2.06-.38.21-.55.35-.3.24-.48.57-.5.95-.02.31-.01.63.03.93.07.59.19,1.18.26,1.77.15,1.3.14,2.6.05,3.9-.15,2.06-.22,4.12-.2,6.18,0,.57.07,1.15.14,1.72.06.46.05.88-.13,1.31-.11.27-.21.55-.24.83-.11.87-.21,1.75-.27,2.63-.08,1.24-.14,2.49-.16,3.73-.04,1.95.3,3.87.63,5.78.29,1.65.55,3.29.66,4.96,0,.09,0,.18,0,.28-.1-.16-.16-.32-.22-.49-.64-1.72-1.28-3.45-1.9-5.17-.55-1.51-1.01-3.04-1.68-4.51-.24-.52-.38-1.08-.45-1.66-.18-1.53-1.54-2.05-2.53-2.03-.68.01-1.18.55-1.14,1.22.01.26.08.52.18.76.19.44.43.85.64,1.27q.24.48-.15.85c-.36.34-.41.64-.15,1.06.08.13.16.26.28.35.78.6,1.12,1.44,1.35,2.36.16.64.33,1.28.66,1.86.03.05.03.13.06.25-.23-.09-.4-.16-.58-.22-1.3-.49-2.62-.67-3.99-.37-.98.22-1.86.64-2.7,1.16-.14.08-.28.16-.4.23,0-.43-.02-.85,0-1.27.07-1.11.29-2.18.94-3.12.19-.28.17-.5-.07-.75-.39-.39-.51-.86-.44-1.39.02-.18.06-.36.1-.54.26-1.12.42-2.26.5-3.41.09-1.25.16-2.5.29-3.74.14-1.32.42-2.62.88-3.88.12-.34.26-.68.35-1.02.08-.3.03-.51-.29-.6-.12-.04-.23-.1-.35-.16-.27-.14-.47-.35-.45-.67.04-.54.07-1.09.18-1.62.14-.67.52-1.24.88-1.81.13-.22.24-.45.33-.69.07-.19.04-.39-.11-.53-.48-.46-.99-.89-1.59-1.16-.69-.31-1.27-.1-1.52.54-.27.68-.35,1.42-.21,2.16.22,1.1.26,2.19-.06,3.29-.27.93-.49,1.88-.72,2.83-.28,1.13-.53,2.27-.81,3.4-.21.88-.42,1.75-.66,2.62-.11.38-.31.74-.48,1.14-.17-.16-.3-.3-.45-.42-.08-.07-.19-.15-.29-.16-.75-.02-1.31-.4-1.83-.89-.31-.29-.63-.57-.98-.82-.65-.47-1.39-.69-2.17-.54-1.07.2-1.98.76-2.72,1.53-.5.51-1.07.82-1.71,1.08-.45.18-.63.06-.7-.41-.19-1.16-.37-2.33-.56-3.49-.27-1.65-.45-3.31-.49-4.98-.04-1.68.14-3.35.51-4.99.09-.39.15-.8.15-1.2,0-.69-.54-1.19-1.14-1.06-.32.07-.64.19-.93.35-.61.34-1.1.85-1.58,1.35-.38.4-.41.62-.17,1.13.24.53.49,1.06.7,1.6Z"/>
        <path class="cls-1" d="m78.47,69.95c-.59.36-.66.55-1.35.54l-5.57-.03h0s-.02,0-.02,0h-.02s0,0,0,0l-5.57.03c-.69,0-.76-.18-1.35-.54-6.9-4.22-19.23-10.21-43.21-12.02v13.21s28.39-2.33,43.16.68c.24.05.49.08.74.07h6.27s6.27,0,6.27,0c.25,0,.49-.02.74-.07,14.76-3.02,43.16-.68,43.16-.68v-13.21c-23.8,1.87-36.31,7.8-43.21,12.02Z"/>
        <path class="cls-1" d="m66,67.67l10.61.02h.71c.54,0,1.07-.14,1.53-.42.48-.29,1-.59,1.54-.89,6.95-3.93,18.84-8.49,37.16-10.18v-10.56s-24.52,2.99-39.55,19.76c-.59.66-.81,1.06-1.7,1.05l-9.29-.03c-.87,0-1.11-.38-1.66-1.05-13.9-16.94-39.53-19.73-39.53-19.73v10.56c19.71,1.82,31.98,7.05,38.66,11.05.46.27.98.41,1.51.42Z"/>
        <path class="cls-1" d="m67.29,63.61h8.79c.48,0,.94-.19,1.27-.53,5.68-5.7,16.75-14.52,32.51-17.76v-11.62s-6.59,2.07-14.45,7.24c-.55.36-1.1.73-1.65,1.12-.05.04-.11.08-.16.11-2.22,1.57-4.5,3.39-6.74,5.47,0,0,0-.02,0-.02-1.65,1.53-3.28,3.2-4.84,5.03,0,.01,0,.02.01.04-2.24,2.64-4.32,5.61-6.14,8.91h-.1s-8.09,0-8.09,0h-.03c-.03-.06-.07-.12-.11-.19-.02-.03-.05-.06-.07-.1-11.47-20.49-33.79-27.62-33.79-27.62v11.62c15.58,3.2,26.58,12.04,32.31,17.76.34.34.79.53,1.27.53Z"/>
      </g>
    </g>
  </g>
</svg>